<?xml version="1.0" encoding="utf-8"?>
<!-- Generator: Adobe Illustrator 26.5.0, SVG Export Plug-In . SVG Version: 6.00 Build 0)  -->
<svg version="1.1" id="Layer_1" xmlns="http://www.w3.org/2000/svg" xmlns:xlink="http://www.w3.org/1999/xlink" x="0px" y="0px"
	 viewBox="0 0 500 500" style="enable-background:new 0 0 500 500;" xml:space="preserve">
<style type="text/css">
	.st0{fill:#474056;}
	.st1{fill:#302D39;}
	.st2{fill:#383343;}
	.st3{fill:#28262F;}
	.st4{fill:none;}
	.st5{fill:#FFFFFF;}
</style>
<g>
	<g>
		<path class="st0" d="M250.43,494.91C115.76,494.91,6.2,385.35,6.2,250.68S115.76,6.45,250.43,6.45s244.23,109.56,244.23,244.23
			S385.1,494.91,250.43,494.91z M481.38,250.68c0-127.35-103.61-230.95-230.95-230.95S19.48,123.33,19.48,250.68
			s103.6,230.95,230.95,230.95S481.38,378.02,481.38,250.68z"/>
	</g>
	<g id="XMLID_00000030456646150506438870000010080908666187012490_">
		<g>
			<path class="st1" d="M391.37,287.37c13.08,10.72,25.55,27.64,36.64,52.88c-19.44,42.69-65.28,83.36-120.78,101.4
				c-132.19,36.12-204.32-57.55-206.44-59.86C216.32,465.45,296,359.38,391.37,287.37z"/>
			<path class="st2" d="M280.92,298.8c29.02-21.57,72.33-42.72,110.45-11.44C296,359.38,216.32,465.45,100.8,381.78
				c-0.02-0.02-0.02-0.05-0.05-0.05c0,0,92.18,11.98,132.76-39.65c27-10.94,16.53-13.55,30.37-28.53c0-0.02,0.02-0.02,0.05-0.05
				c5.9-5.26,11.51-10.13,16.87-14.61C280.85,298.88,280.87,298.83,280.92,298.8z"/>
			<path class="st2" d="M447.37,251.76c6.44,9.2-0.91,44.24-19.36,88.49c-11.09-25.23-23.56-42.15-36.64-52.88
				C409.35,273.79,427.92,261.42,447.37,251.76z"/>
			<path class="st0" d="M362.57,249.91c29.49-9.22,78.36-7.38,84.8,1.84c-19.45,9.67-38.02,22.04-56,35.61
				c-38.12-31.28-81.43-10.13-110.45,11.44C313.9,271.21,337.22,257.83,362.57,249.91z"/>
			<path class="st3" d="M222.93,345.09c3.66-0.64,7.21-1.65,10.58-3C135.77,390.96,86.49,352.9,67.57,321.8
				c-9.17-15.07-19.9-35.76-17.61-72.9c0.49,4.62,17.95,137.04,172.94,96.19C222.91,345.09,222.91,345.09,222.93,345.09z"/>
			<path class="st3" d="M263.88,313.56c-13.85,14.98-3.37,17.58-30.37,28.53c-3.59,1.08-7.13,2.09-10.58,3c-0.02,0-0.02,0-0.02,0
				c-33.55,5.9-77.79-16.63-93.58-39.87c0,0-32.27-47.93-7.48-99.6c15.96-33.25,37.14-52.06,55.88-55.7
				c8.26-1.57,16.15-0.78,23.44,4.53c1.48,1.01,2.88,2.16,4.21,3.47c21.35,20.81-18.89,48.67-18.89,48.67
				C83.29,296.88,221.41,351.26,263.88,313.56z"/>
			<path class="st1" d="M129.33,305.22c15.79,23.24,60.03,45.77,93.58,39.87C67.92,385.94,50.46,253.53,49.96,248.9
				c0.93-15.32,3.86-33.6,9.71-55.66c38.86-42.79,82.34-48.15,118.05-43.33c-18.74,3.64-39.92,22.45-55.88,55.7
				C97.06,257.29,129.33,305.22,129.33,305.22z"/>
			<path class="st2" d="M125.88,99.54c162.02-69.87,175.97,35.41,189.67,51.72c36.25,34.11,47.02-8.71,47.02-8.71
				c-2.78,54.79-76.54,64.02-76.54,64.02s-44.24,53.47-99.56,0c0,0,40.24-27.86,18.89-48.67c-1.33-1.3-2.73-2.46-4.21-3.47
				c38.66,9.42,67.63,24.35,74.74,0.52c16.5-55.31-62.69-64.53-62.69-64.53C187.49,76.21,130.14,97.9,125.88,99.54z"/>
			<path class="st0" d="M364.71,99.64c0,0,37.8,10.13,32.27,49.78c-5.53,39.65-45.18,35.96-45.18,35.96
				C368.77,159.04,377.28,131.22,364.71,99.64z"/>
			<path class="st0" d="M213.22,90.42c0,0,79.19,9.22,62.69,64.53c-7.11,23.83-36.08,8.9-74.74-0.52
				c-6.81-4.72-14.88-6.2-23.44-4.53c-35.71-4.82-79.19,0.54-118.05,43.33c1.57-6.03,5.85-14.78,7.89-21.4
				C98.91,102.72,158.84,94.11,213.22,90.42z"/>
			<path class="st0" d="M295.26,56.31c38.71,10.13,70.07,31.43,67.31,86.25c0,0-10.77,42.82-47.02,8.71
				c-13.7-16.31-27.64-121.59-189.67-51.72c-0.07,0.02-0.15,0.05-0.22,0.07C127.29,97.82,189.73,29.92,295.26,56.31z"/>
		</g>
		<g>
			<path class="st4" d="M364.71,99.64c12.57,31.58,4.06,59.39-12.91,85.73c0,0,39.65,3.69,45.18-35.96
				C402.51,109.78,364.71,99.64,364.71,99.64z"/>
			<path class="st4" d="M263.93,313.51c5.9-5.26,11.51-10.13,16.87-14.61"/>
			<path class="st4" d="M125.66,99.62c1.62-1.8,64.07-69.7,169.6-43.31c38.71,10.13,70.07,31.43,67.31,86.25
				c-2.78,54.79-76.54,64.02-76.54,64.02s-44.24,53.47-99.56,0c-103.2,90.31,34.92,144.68,77.4,106.98"/>
			<path class="st4" d="M125.64,99.64l0.02-0.02c0.07-0.02,0.15-0.05,0.22-0.07c162.02-69.87,175.97,35.41,189.67,51.72
				c36.25,34.11,47.02-8.71,47.02-8.71"/>
			<path class="st4" d="M213.22,90.42c0,0,79.19,9.22,62.69,64.53c-7.11,23.83-36.08,8.9-74.74-0.52
				c-7.48-1.82-15.32-3.44-23.44-4.53c-35.71-4.82-79.19,0.54-118.05,43.33l-0.02,0.02"/>
			<path class="st4" d="M222.93,345.09c3.66-0.64,7.21-1.65,10.58-3c27-10.94,16.53-13.55,30.37-28.53c0-0.02,0.02-0.02,0.05-0.05
				c3.62-3.91,8.88-8.66,16.87-14.61c0.05-0.02,0.07-0.07,0.12-0.1c29.02-21.57,72.33-42.72,110.45-11.44
				c13.08,10.72,25.55,27.64,36.64,52.88"/>
			<path class="st4" d="M186.48,206.58c0,0,40.24-27.86,18.89-48.67c-1.33-1.3-2.73-2.46-4.21-3.47c-6.81-4.72-14.88-6.2-23.44-4.53
				c-18.74,3.64-39.92,22.45-55.88,55.7c-24.79,51.67,7.48,99.6,7.48,99.6c15.79,23.24,60.03,45.77,93.58,39.87"/>
			<path class="st4" d="M49.96,248.78c0,0,0,0.05,0,0.12c0.49,4.62,17.95,137.04,172.94,96.19c0,0,0,0,0.02,0
				c3.44-0.91,6.98-1.92,10.58-3"/>
			<path class="st4" d="M100.75,381.73c0.02,0,0.02,0.02,0.05,0.05c115.52,83.67,195.2-22.4,290.57-94.42
				c17.98-13.58,36.55-25.95,56-35.61"/>
		</g>
	</g>
	<g>
		<g>
			<path class="st5" d="M334.05,342.86c-1.67,1.38-3.37,2.78-5.12,4.21c-1.68,1.37-4.14,1.11-5.51-0.56
				c-1.36-1.67-1.11-4.12,0.54-5.49c0.01-0.01,0.02-0.01,0.02-0.02c1.73-1.41,3.42-2.79,5.07-4.16c7-5.8,13.34-11.23,19.51-16.52
				c6.05-5.18,11.93-10.22,18.18-15.4c6.04-5,12.42-10.13,19.65-15.64c1.72-1.31,4.18-0.98,5.49,0.74c1.28,1.68,1,4.05-0.61,5.39
				c-0.04,0.03-0.08,0.07-0.12,0.1c-7.13,5.44-13.44,10.51-19.41,15.46c-6.21,5.15-12.06,10.15-18.07,15.31
				C347.47,331.57,341.1,337.02,334.05,342.86z"/>
			<path class="st5" d="M387.14,314.04c-1.66,1.37-4.11,1.15-5.5-0.5l-15.54-18.55c-1.39-1.66-1.17-4.13,0.49-5.51
				c0.01-0.01,0.01-0.01,0.02-0.01c1.66-1.37,4.11-1.15,5.5,0.5l15.54,18.55c1.39,1.66,1.17,4.13-0.49,5.51
				C387.15,314.03,387.14,314.04,387.14,314.04z"/>
			<path class="st5" d="M374.02,325.02c-1.66,1.37-4.11,1.15-5.5-0.5l-15.54-18.55c-1.39-1.66-1.17-4.13,0.49-5.51
				c0.01-0.01,0.01-0.01,0.02-0.01c1.66-1.37,4.11-1.15,5.5,0.5l15.54,18.55c1.39,1.66,1.17,4.13-0.49,5.51
				C374.04,325.01,374.03,325.02,374.02,325.02z"/>
			<path class="st5" d="M360.91,336.01c-1.66,1.37-4.11,1.15-5.5-0.5l-15.54-18.55c-1.39-1.66-1.17-4.13,0.49-5.51
				c0.01-0.01,0.01-0.01,0.02-0.01c1.66-1.37,4.11-1.15,5.5,0.5l15.54,18.55c1.39,1.66,1.17,4.13-0.49,5.51
				C360.92,336,360.92,336,360.91,336.01z"/>
			<path class="st5" d="M347.8,346.99c-1.66,1.37-4.11,1.15-5.5-0.5l-15.54-18.55c-1.39-1.66-1.17-4.13,0.49-5.51
				c0.01-0.01,0.01-0.01,0.02-0.01c1.66-1.37,4.11-1.15,5.5,0.5l15.54,18.55c1.39,1.66,1.17,4.13-0.49,5.51
				C347.82,346.98,347.81,346.99,347.8,346.99z"/>
		</g>
	</g>
	<path class="st3" d="M250.43,481.63c-127.35,0-230.95-103.61-230.95-230.95S123.08,19.73,250.43,19.73s230.95,103.6,230.95,230.95
		S377.78,481.63,250.43,481.63z M471.64,250.68c0-121.98-99.24-221.21-221.21-221.21S29.22,128.7,29.22,250.68
		c0,121.98,99.23,221.21,221.21,221.21S471.64,372.66,471.64,250.68z"/>
</g>
</svg>
